<svg width="191" height="238" viewBox="0 0 191 238" fill="none" xmlns="http://www.w3.org/2000/svg">
<path d="M165.5 60.5V6.5C159.5 14.5 150.667 17.1667 147 17.5C133 14.1667 100.4 7.7 82 8.5C59 9.5 42.5 13.5 28 24.5C13.5 35.5 2.00001 46.5 3.00001 82.5C4.00001 118.5 39.5 138.5 82 150.5C116 160.1 118.833 174.833 116 181C112.833 186.167 99.7 196.2 72.5 195C45.3001 193.8 16.1667 174.5 5.00001 165C5.16668 189.833 5.70001 238.7 6.50001 235.5C7.30001 232.3 23.8333 221.167 32 216C55.5 223 72.5 229 106.5 225.5C140.5 222 171 201.5 182.5 179.5C194 157.5 186.5 141.5 169.5 119.5C155.9 101.9 123.167 87.5 108.5 82.5C101 80.5 83.3 74.3 72.5 65.5C61.7 56.7 69 46.8333 74 43C76.8334 39.8333 87.7 33.9 108.5 35.5C129.3 37.1 155.167 52.8333 165.5 60.5Z" stroke="white" stroke-width="4"/>
</svg>
