<svg width="105" height="135" viewBox="0 0 105 135" fill="none" xmlns="http://www.w3.org/2000/svg">
    <path d="M90.7111 36.6924V7C87.4369 11.3989 82.6164 12.8652 80.6154 13.0484C72.9755 11.2156 55.1853 7.65983 45.1442 8.09972C32.5929 8.64958 23.5887 10.849 15.6759 16.8975C7.76305 22.9459 1.48737 28.9943 2.03308 48.7893C2.57879 68.5842 21.9515 79.5813 45.1442 86.1796C63.6984 91.4583 65.2446 99.5595 63.6984 102.95C61.9703 105.791 54.8033 111.308 39.96 110.648C25.1167 109.989 9.21828 99.3763 3.1245 94.1526C3.21546 107.807 3.5065 134.677 3.94307 132.918C4.37964 131.158 13.4021 125.036 17.8587 122.195C30.6829 126.044 39.96 129.344 58.5141 127.419C77.0683 125.495 93.7125 114.222 99.9882 102.126C106.264 90.0287 102.171 81.2309 92.8939 69.134C85.4723 59.4565 67.6093 51.5386 59.6056 48.7893C55.5127 47.6895 45.8537 44.2804 39.96 39.4417C34.0663 34.6029 38.05 29.1776 40.7786 27.0698C42.3247 25.3286 48.2548 22.0661 59.6056 22.9459C70.9564 23.8257 85.0721 32.4768 90.7111 36.6924Z" fill="white" stroke="white" stroke-width="4"/>
</svg>
