<svg width="130" height="119" viewBox="0 0 130 119" fill="none" xmlns="http://www.w3.org/2000/svg">
    <path d="M43.5877 115.631H5C5.82688 114.81 8.30752 112.783 11.615 111.25C14.9226 109.717 15.9332 103.675 16.0251 100.845V12.6786L7.48064 2H56.5421L98.4374 72.6429C98.1617 55.119 97.7759 19.3595 98.4374 16.5119C99.0989 13.6643 92.833 5.65079 89.6173 2H124.071C116.794 9.00952 115.526 12.0397 115.802 12.6786V103.036L126 117H76.3872L32.287 42.25C31.6439 59.6825 30.7435 95.8071 32.287 100.845C33.8305 105.883 40.4639 112.802 43.5877 115.631Z" fill="white" stroke="white" stroke-width="4"/>
</svg>
